<mxfile host="app.diagrams.net" modified="2022-04-19T10:59:05.831Z" agent="5.0 (Macintosh; Intel Mac OS X 10_13_1) AppleWebKit/537.36 (KHTML, like Gecko) Chrome/100.0.4896.127 Safari/537.36" etag="sDYibvmoU0OcK8DSBXgU" version="17.4.4" type="github">
  <diagram id="ifSPu3AfvnNZ_Hdb-L9t" name="Page-1">
    <mxGraphModel dx="891" dy="496" grid="0" gridSize="10" guides="1" tooltips="1" connect="1" arrows="1" fold="1" page="1" pageScale="1" pageWidth="827" pageHeight="1169" math="0" shadow="0">
      <root>
        <mxCell id="0" />
        <mxCell id="1" parent="0" />
        <mxCell id="zVb_pj8RaRooyPpA-IDt-1" value="" style="rounded=1;whiteSpace=wrap;html=1;fontSize=14;" parent="1" vertex="1">
          <mxGeometry x="121" y="211" width="200.62" height="160" as="geometry" />
        </mxCell>
        <mxCell id="zVb_pj8RaRooyPpA-IDt-2" value="Add &amp;amp; Normalize" style="rounded=1;whiteSpace=wrap;html=1;fontSize=14;fillColor=#d5e8d4;strokeColor=#82b366;" parent="1" vertex="1">
          <mxGeometry x="146.62" y="224" width="155" height="23" as="geometry" />
        </mxCell>
        <mxCell id="zVb_pj8RaRooyPpA-IDt-3" value="Feed Forward" style="rounded=1;whiteSpace=wrap;html=1;fontSize=14;fillColor=#dae8fc;strokeColor=#6c8ebf;" parent="1" vertex="1">
          <mxGeometry x="146.62" y="261" width="155" height="23" as="geometry" />
        </mxCell>
        <mxCell id="zVb_pj8RaRooyPpA-IDt-4" value="Add &amp;amp; Normalize" style="rounded=1;whiteSpace=wrap;html=1;fontSize=14;fillColor=#d5e8d4;strokeColor=#82b366;" parent="1" vertex="1">
          <mxGeometry x="146.62" y="297" width="155" height="23" as="geometry" />
        </mxCell>
        <mxCell id="zVb_pj8RaRooyPpA-IDt-5" value="Multi-Head Attention" style="rounded=1;whiteSpace=wrap;html=1;fontSize=14;fillColor=#ffe6cc;strokeColor=#d79b00;" parent="1" vertex="1">
          <mxGeometry x="146.62" y="334" width="155" height="23" as="geometry" />
        </mxCell>
        <mxCell id="zVb_pj8RaRooyPpA-IDt-6" value="" style="rounded=1;whiteSpace=wrap;html=1;fontSize=14;" parent="1" vertex="1">
          <mxGeometry x="351" y="121" width="250" height="250" as="geometry" />
        </mxCell>
        <mxCell id="zVb_pj8RaRooyPpA-IDt-7" value="Add &amp;amp; Normalize" style="rounded=1;whiteSpace=wrap;html=1;fontSize=14;fillColor=#d5e8d4;strokeColor=#82b366;" parent="1" vertex="1">
          <mxGeometry x="388" y="130" width="190" height="23" as="geometry" />
        </mxCell>
        <mxCell id="zVb_pj8RaRooyPpA-IDt-8" value="Feed Forward" style="rounded=1;whiteSpace=wrap;html=1;fontSize=14;fillColor=#dae8fc;strokeColor=#6c8ebf;" parent="1" vertex="1">
          <mxGeometry x="388" y="169.5" width="190" height="23" as="geometry" />
        </mxCell>
        <mxCell id="zVb_pj8RaRooyPpA-IDt-9" value="Multi-Head Attention" style="rounded=1;whiteSpace=wrap;html=1;fontSize=14;fillColor=#ffe6cc;strokeColor=#d79b00;" parent="1" vertex="1">
          <mxGeometry x="388" y="250" width="190" height="23" as="geometry" />
        </mxCell>
        <mxCell id="zVb_pj8RaRooyPpA-IDt-10" value="Masked Multi-Head Attention" style="rounded=1;whiteSpace=wrap;html=1;fontSize=14;fillColor=#ffe6cc;strokeColor=#d79b00;" parent="1" vertex="1">
          <mxGeometry x="390.25" y="331" width="187.5" height="23" as="geometry" />
        </mxCell>
        <mxCell id="zVb_pj8RaRooyPpA-IDt-11" value="" style="endArrow=classic;html=1;rounded=1;fontSize=14;entryX=0.5;entryY=1;entryDx=0;entryDy=0;" parent="1" target="zVb_pj8RaRooyPpA-IDt-5" edge="1">
          <mxGeometry width="50" height="50" relative="1" as="geometry">
            <mxPoint x="224.6199999999999" y="384.0000000000001" as="sourcePoint" />
            <mxPoint x="251.62" y="424" as="targetPoint" />
          </mxGeometry>
        </mxCell>
        <mxCell id="zVb_pj8RaRooyPpA-IDt-12" value="" style="endArrow=classic;html=1;rounded=1;fontSize=14;entryX=0.5;entryY=1;entryDx=0;entryDy=0;exitX=0.5;exitY=0;exitDx=0;exitDy=0;" parent="1" source="zVb_pj8RaRooyPpA-IDt-5" target="zVb_pj8RaRooyPpA-IDt-4" edge="1">
          <mxGeometry width="50" height="50" relative="1" as="geometry">
            <mxPoint x="234.62" y="394" as="sourcePoint" />
            <mxPoint x="234.12" y="365" as="targetPoint" />
          </mxGeometry>
        </mxCell>
        <mxCell id="zVb_pj8RaRooyPpA-IDt-13" value="" style="endArrow=classic;html=1;rounded=1;fontSize=14;entryX=0.5;entryY=1;entryDx=0;entryDy=0;exitX=0.5;exitY=0;exitDx=0;exitDy=0;" parent="1" source="zVb_pj8RaRooyPpA-IDt-4" target="zVb_pj8RaRooyPpA-IDt-3" edge="1">
          <mxGeometry width="50" height="50" relative="1" as="geometry">
            <mxPoint x="234.12" y="344" as="sourcePoint" />
            <mxPoint x="234.12" y="329" as="targetPoint" />
          </mxGeometry>
        </mxCell>
        <mxCell id="zVb_pj8RaRooyPpA-IDt-14" value="" style="endArrow=classic;html=1;rounded=1;fontSize=14;exitX=0.5;exitY=0;exitDx=0;exitDy=0;entryX=0.5;entryY=1;entryDx=0;entryDy=0;" parent="1" source="zVb_pj8RaRooyPpA-IDt-3" target="zVb_pj8RaRooyPpA-IDt-2" edge="1">
          <mxGeometry width="50" height="50" relative="1" as="geometry">
            <mxPoint x="244.12" y="354" as="sourcePoint" />
            <mxPoint x="244.12" y="339" as="targetPoint" />
          </mxGeometry>
        </mxCell>
        <mxCell id="zVb_pj8RaRooyPpA-IDt-15" value="" style="endArrow=classic;html=1;rounded=1;fontSize=14;entryX=0;entryY=0.5;entryDx=0;entryDy=0;edgeStyle=elbowEdgeStyle;dashed=1;" parent="1" target="zVb_pj8RaRooyPpA-IDt-4" edge="1">
          <mxGeometry width="50" height="50" relative="1" as="geometry">
            <mxPoint x="221.6199999999999" y="364" as="sourcePoint" />
            <mxPoint x="81.62" y="314" as="targetPoint" />
            <Array as="points">
              <mxPoint x="131.62" y="344" />
              <mxPoint x="141.62" y="344" />
              <mxPoint x="131.62" y="344" />
              <mxPoint x="131.62" y="344" />
            </Array>
          </mxGeometry>
        </mxCell>
        <mxCell id="zVb_pj8RaRooyPpA-IDt-16" value="" style="endArrow=classic;html=1;rounded=1;fontSize=14;edgeStyle=elbowEdgeStyle;dashed=1;exitX=0.502;exitY=0.519;exitDx=0;exitDy=0;exitPerimeter=0;entryX=0;entryY=0.5;entryDx=0;entryDy=0;" parent="1" target="zVb_pj8RaRooyPpA-IDt-2" edge="1">
          <mxGeometry width="50" height="50" relative="1" as="geometry">
            <mxPoint x="221.7112400000001" y="291.03999999999985" as="sourcePoint" />
            <mxPoint x="141.62" y="234" as="targetPoint" />
            <Array as="points">
              <mxPoint x="131.62" y="264" />
              <mxPoint x="151.62" y="351" />
              <mxPoint x="141.62" y="351" />
              <mxPoint x="141.62" y="351" />
            </Array>
          </mxGeometry>
        </mxCell>
        <mxCell id="zVb_pj8RaRooyPpA-IDt-18" value="" style="endArrow=classic;html=1;rounded=1;fontSize=14;entryX=0.5;entryY=1;entryDx=0;entryDy=0;" parent="1" source="zVb_pj8RaRooyPpA-IDt-25" target="zVb_pj8RaRooyPpA-IDt-9" edge="1">
          <mxGeometry width="50" height="50" relative="1" as="geometry">
            <mxPoint x="483.0000000000002" y="289.9999999999999" as="sourcePoint" />
            <mxPoint x="480.25" y="274.851" as="targetPoint" />
          </mxGeometry>
        </mxCell>
        <mxCell id="zVb_pj8RaRooyPpA-IDt-19" style="edgeStyle=elbowEdgeStyle;rounded=1;orthogonalLoop=1;jettySize=auto;html=1;entryX=0.5;entryY=0;entryDx=0;entryDy=0;dashed=1;fontSize=14;endArrow=classic;endFill=1;" parent="1" edge="1">
          <mxGeometry relative="1" as="geometry">
            <mxPoint x="475.57142857142867" y="290" as="sourcePoint" />
            <mxPoint x="475.7500000000002" y="290" as="targetPoint" />
          </mxGeometry>
        </mxCell>
        <mxCell id="zVb_pj8RaRooyPpA-IDt-21" value="" style="endArrow=classic;html=1;rounded=1;fontSize=14;entryX=0.5;entryY=1;entryDx=0;entryDy=0;" parent="1" edge="1" target="zVb_pj8RaRooyPpA-IDt-10">
          <mxGeometry width="50" height="50" relative="1" as="geometry">
            <mxPoint x="484" y="381" as="sourcePoint" />
            <mxPoint x="484.0000000000002" y="349" as="targetPoint" />
          </mxGeometry>
        </mxCell>
        <mxCell id="zVb_pj8RaRooyPpA-IDt-22" value="" style="endArrow=classic;html=1;rounded=1;fontSize=14;entryX=0;entryY=0.5;entryDx=0;entryDy=0;edgeStyle=elbowEdgeStyle;dashed=1;" parent="1" target="zVb_pj8RaRooyPpA-IDt-25" edge="1">
          <mxGeometry width="50" height="50" relative="1" as="geometry">
            <mxPoint x="481" y="363" as="sourcePoint" />
            <mxPoint x="380.75" y="301.4999999999999" as="targetPoint" />
            <Array as="points">
              <mxPoint x="371" y="333" />
              <mxPoint x="361" y="333" />
              <mxPoint x="111" y="336" />
              <mxPoint x="101" y="336" />
              <mxPoint x="101" y="336" />
            </Array>
          </mxGeometry>
        </mxCell>
        <mxCell id="zVb_pj8RaRooyPpA-IDt-23" value="" style="endArrow=classic;html=1;rounded=1;fontSize=14;edgeStyle=elbowEdgeStyle;dashed=1;entryX=0;entryY=0.5;entryDx=0;entryDy=0;" parent="1" target="zVb_pj8RaRooyPpA-IDt-24" edge="1">
          <mxGeometry width="50" height="50" relative="1" as="geometry">
            <mxPoint x="481" y="283" as="sourcePoint" />
            <mxPoint x="381" y="226" as="targetPoint" />
            <Array as="points">
              <mxPoint x="371" y="253" />
              <mxPoint x="361" y="344.5" />
              <mxPoint x="361" y="344.5" />
              <mxPoint x="111" y="347.5" />
              <mxPoint x="101" y="347.5" />
              <mxPoint x="101" y="347.5" />
            </Array>
          </mxGeometry>
        </mxCell>
        <mxCell id="zVb_pj8RaRooyPpA-IDt-24" value="Add &amp;amp; Normalize" style="rounded=1;whiteSpace=wrap;html=1;fontSize=14;fillColor=#d5e8d4;strokeColor=#82b366;" parent="1" vertex="1">
          <mxGeometry x="388" y="211" width="190" height="23" as="geometry" />
        </mxCell>
        <mxCell id="zVb_pj8RaRooyPpA-IDt-25" value="Add &amp;amp; Normalize" style="rounded=1;whiteSpace=wrap;html=1;fontSize=14;fillColor=#d5e8d4;strokeColor=#82b366;" parent="1" vertex="1">
          <mxGeometry x="389" y="293" width="190" height="23" as="geometry" />
        </mxCell>
        <mxCell id="zVb_pj8RaRooyPpA-IDt-26" style="rounded=1;orthogonalLoop=1;jettySize=auto;html=1;exitX=0.5;exitY=0;exitDx=0;exitDy=0;fontSize=14;endArrow=classic;endFill=1;entryX=0.5;entryY=1;entryDx=0;entryDy=0;" parent="1" source="zVb_pj8RaRooyPpA-IDt-24" target="zVb_pj8RaRooyPpA-IDt-8" edge="1">
          <mxGeometry relative="1" as="geometry">
            <mxPoint x="481" y="183" as="targetPoint" />
          </mxGeometry>
        </mxCell>
        <mxCell id="zVb_pj8RaRooyPpA-IDt-27" value="" style="endArrow=classic;html=1;rounded=1;fontSize=14;edgeStyle=elbowEdgeStyle;dashed=1;entryX=0;entryY=0.5;entryDx=0;entryDy=0;" parent="1" target="zVb_pj8RaRooyPpA-IDt-7" edge="1">
          <mxGeometry width="50" height="50" relative="1" as="geometry">
            <mxPoint x="481" y="203" as="sourcePoint" />
            <mxPoint x="398" y="229.5" as="targetPoint" />
            <Array as="points">
              <mxPoint x="371" y="173" />
              <mxPoint x="371" y="354.5" />
              <mxPoint x="371" y="354.5" />
              <mxPoint x="121" y="357.5" />
              <mxPoint x="111" y="357.5" />
              <mxPoint x="111" y="357.5" />
            </Array>
          </mxGeometry>
        </mxCell>
        <mxCell id="zVb_pj8RaRooyPpA-IDt-28" value="" style="endArrow=classic;html=1;rounded=1;fontSize=14;edgeStyle=orthogonalEdgeStyle;dashed=1;entryX=0;entryY=0.5;entryDx=0;entryDy=0;exitX=0.5;exitY=0;exitDx=0;exitDy=0;" parent="1" source="zVb_pj8RaRooyPpA-IDt-1" target="zVb_pj8RaRooyPpA-IDt-9" edge="1">
          <mxGeometry width="50" height="50" relative="1" as="geometry">
            <mxPoint x="500" y="301" as="sourcePoint" />
            <mxPoint x="407" y="240.5" as="targetPoint" />
            <Array as="points">
              <mxPoint x="220" y="201" />
              <mxPoint x="340" y="201" />
              <mxPoint x="340" y="270" />
            </Array>
          </mxGeometry>
        </mxCell>
        <mxCell id="zVb_pj8RaRooyPpA-IDt-29" value="Softmax" style="rounded=1;whiteSpace=wrap;html=1;fontSize=14;fillColor=#f8cecc;strokeColor=#b85450;" parent="1" vertex="1">
          <mxGeometry x="390.25" y="40" width="190" height="23" as="geometry" />
        </mxCell>
        <mxCell id="zVb_pj8RaRooyPpA-IDt-30" value="Linear" style="rounded=1;whiteSpace=wrap;html=1;fontSize=14;fillColor=#e1d5e7;strokeColor=#9673a6;" parent="1" vertex="1">
          <mxGeometry x="391.25" y="80" width="190" height="23" as="geometry" />
        </mxCell>
        <mxCell id="zVb_pj8RaRooyPpA-IDt-31" value="" style="endArrow=classic;html=1;rounded=1;fontSize=14;" parent="1" target="zVb_pj8RaRooyPpA-IDt-30" edge="1">
          <mxGeometry width="50" height="50" relative="1" as="geometry">
            <mxPoint x="486" y="120" as="sourcePoint" />
            <mxPoint x="494.0000000000002" y="359" as="targetPoint" />
          </mxGeometry>
        </mxCell>
        <mxCell id="zVb_pj8RaRooyPpA-IDt-32" value="" style="endArrow=classic;html=1;rounded=1;fontSize=14;entryX=0.5;entryY=1;entryDx=0;entryDy=0;" parent="1" target="zVb_pj8RaRooyPpA-IDt-29" edge="1">
          <mxGeometry width="50" height="50" relative="1" as="geometry">
            <mxPoint x="485" y="80" as="sourcePoint" />
            <mxPoint x="496.14912280701765" y="113" as="targetPoint" />
          </mxGeometry>
        </mxCell>
        <mxCell id="zVb_pj8RaRooyPpA-IDt-33" value="" style="shape=table;html=1;whiteSpace=wrap;startSize=0;container=1;collapsible=0;childLayout=tableLayout;fontSize=14;fillColor=#b1ddf0;strokeColor=#10739e;" parent="1" vertex="1">
          <mxGeometry x="179.12" y="396" width="90.88" height="20" as="geometry" />
        </mxCell>
        <mxCell id="zVb_pj8RaRooyPpA-IDt-34" value="" style="shape=tableRow;horizontal=0;startSize=0;swimlaneHead=0;swimlaneBody=0;top=0;left=0;bottom=0;right=0;collapsible=0;dropTarget=0;fillColor=none;points=[[0,0.5],[1,0.5]];portConstraint=eastwest;fontSize=14;strokeColor=#D5E8D4;" parent="zVb_pj8RaRooyPpA-IDt-33" vertex="1">
          <mxGeometry width="90.88" height="20" as="geometry" />
        </mxCell>
        <mxCell id="zVb_pj8RaRooyPpA-IDt-35" value="" style="shape=partialRectangle;html=1;whiteSpace=wrap;connectable=0;fillColor=none;top=0;left=0;bottom=0;right=0;overflow=hidden;fontSize=14;strokeColor=#D5E8D4;" parent="zVb_pj8RaRooyPpA-IDt-34" vertex="1">
          <mxGeometry width="23" height="20" as="geometry">
            <mxRectangle width="23" height="20" as="alternateBounds" />
          </mxGeometry>
        </mxCell>
        <mxCell id="zVb_pj8RaRooyPpA-IDt-36" value="" style="shape=partialRectangle;html=1;whiteSpace=wrap;connectable=0;fillColor=none;top=0;left=0;bottom=0;right=0;overflow=hidden;fontSize=14;strokeColor=#D5E8D4;" parent="zVb_pj8RaRooyPpA-IDt-34" vertex="1">
          <mxGeometry x="23" width="22" height="20" as="geometry">
            <mxRectangle width="22" height="20" as="alternateBounds" />
          </mxGeometry>
        </mxCell>
        <mxCell id="zVb_pj8RaRooyPpA-IDt-37" value="" style="shape=partialRectangle;html=1;whiteSpace=wrap;connectable=0;fillColor=none;top=0;left=0;bottom=0;right=0;overflow=hidden;fontSize=14;strokeColor=#D5E8D4;" parent="zVb_pj8RaRooyPpA-IDt-34" vertex="1">
          <mxGeometry x="45" width="21" height="20" as="geometry">
            <mxRectangle width="21" height="20" as="alternateBounds" />
          </mxGeometry>
        </mxCell>
        <mxCell id="zVb_pj8RaRooyPpA-IDt-38" style="shape=partialRectangle;html=1;whiteSpace=wrap;connectable=0;fillColor=none;top=0;left=0;bottom=0;right=0;overflow=hidden;fontSize=14;strokeColor=#D5E8D4;" parent="zVb_pj8RaRooyPpA-IDt-34" vertex="1">
          <mxGeometry x="66" width="25" height="20" as="geometry">
            <mxRectangle width="25" height="20" as="alternateBounds" />
          </mxGeometry>
        </mxCell>
        <mxCell id="zVb_pj8RaRooyPpA-IDt-39" value="" style="shape=table;html=1;whiteSpace=wrap;startSize=0;container=1;collapsible=0;childLayout=tableLayout;fontSize=14;fillColor=#bac8d3;strokeColor=#23445d;" parent="1" vertex="1">
          <mxGeometry x="439" y="395" width="90" height="20" as="geometry" />
        </mxCell>
        <mxCell id="zVb_pj8RaRooyPpA-IDt-40" value="" style="shape=tableRow;horizontal=0;startSize=0;swimlaneHead=0;swimlaneBody=0;top=0;left=0;bottom=0;right=0;collapsible=0;dropTarget=0;fillColor=none;points=[[0,0.5],[1,0.5]];portConstraint=eastwest;fontSize=14;strokeColor=#D5E8D4;" parent="zVb_pj8RaRooyPpA-IDt-39" vertex="1">
          <mxGeometry width="90" height="20" as="geometry" />
        </mxCell>
        <mxCell id="zVb_pj8RaRooyPpA-IDt-41" value="" style="shape=partialRectangle;html=1;whiteSpace=wrap;connectable=0;fillColor=none;top=0;left=0;bottom=0;right=0;overflow=hidden;fontSize=14;strokeColor=#D5E8D4;" parent="zVb_pj8RaRooyPpA-IDt-40" vertex="1">
          <mxGeometry width="23" height="20" as="geometry">
            <mxRectangle width="23" height="20" as="alternateBounds" />
          </mxGeometry>
        </mxCell>
        <mxCell id="zVb_pj8RaRooyPpA-IDt-42" value="" style="shape=partialRectangle;html=1;whiteSpace=wrap;connectable=0;fillColor=none;top=0;left=0;bottom=0;right=0;overflow=hidden;fontSize=14;strokeColor=#D5E8D4;" parent="zVb_pj8RaRooyPpA-IDt-40" vertex="1">
          <mxGeometry x="23" width="22" height="20" as="geometry">
            <mxRectangle width="22" height="20" as="alternateBounds" />
          </mxGeometry>
        </mxCell>
        <mxCell id="zVb_pj8RaRooyPpA-IDt-43" value="" style="shape=partialRectangle;html=1;whiteSpace=wrap;connectable=0;fillColor=none;top=0;left=0;bottom=0;right=0;overflow=hidden;fontSize=14;strokeColor=#D5E8D4;" parent="zVb_pj8RaRooyPpA-IDt-40" vertex="1">
          <mxGeometry x="45" width="23" height="20" as="geometry">
            <mxRectangle width="23" height="20" as="alternateBounds" />
          </mxGeometry>
        </mxCell>
        <mxCell id="zVb_pj8RaRooyPpA-IDt-44" style="shape=partialRectangle;html=1;whiteSpace=wrap;connectable=0;fillColor=none;top=0;left=0;bottom=0;right=0;overflow=hidden;fontSize=14;strokeColor=#D5E8D4;" parent="zVb_pj8RaRooyPpA-IDt-40" vertex="1">
          <mxGeometry x="68" width="22" height="20" as="geometry">
            <mxRectangle width="22" height="20" as="alternateBounds" />
          </mxGeometry>
        </mxCell>
        <mxCell id="zVb_pj8RaRooyPpA-IDt-45" value="" style="shape=orEllipse;perimeter=ellipsePerimeter;whiteSpace=wrap;html=1;backgroundOutline=1;fontSize=14;" parent="1" vertex="1">
          <mxGeometry x="218.62" y="380" width="11" height="11" as="geometry" />
        </mxCell>
        <mxCell id="zVb_pj8RaRooyPpA-IDt-46" value="" style="shape=orEllipse;perimeter=ellipsePerimeter;whiteSpace=wrap;html=1;backgroundOutline=1;fontSize=14;" parent="1" vertex="1">
          <mxGeometry x="478.75" y="379" width="11" height="11" as="geometry" />
        </mxCell>
        <mxCell id="zVb_pj8RaRooyPpA-IDt-47" value="Inputs" style="text;html=1;align=center;verticalAlign=middle;resizable=0;points=[];autosize=1;strokeColor=none;fillColor=none;fontSize=14;" parent="1" vertex="1">
          <mxGeometry x="200" y="421" width="50" height="20" as="geometry" />
        </mxCell>
        <mxCell id="zVb_pj8RaRooyPpA-IDt-48" value="Outputs" style="text;html=1;align=center;verticalAlign=middle;resizable=0;points=[];autosize=1;strokeColor=none;fillColor=none;fontSize=14;" parent="1" vertex="1">
          <mxGeometry x="455.25" y="421" width="60" height="20" as="geometry" />
        </mxCell>
        <mxCell id="zVb_pj8RaRooyPpA-IDt-49" value="&lt;font&gt;&lt;span style=&quot;font-size: 10px&quot;&gt;Positional&amp;nbsp;&lt;/span&gt;&lt;font style=&quot;font-size: 12px&quot;&gt;Encoding&lt;/font&gt;&lt;/font&gt;" style="text;html=1;align=center;verticalAlign=middle;resizable=0;points=[];autosize=1;strokeColor=none;fillColor=none;fontSize=14;" parent="1" vertex="1">
          <mxGeometry x="231" y="374.5" width="120" height="20" as="geometry" />
        </mxCell>
        <mxCell id="zVb_pj8RaRooyPpA-IDt-50" value="&lt;font&gt;&lt;span style=&quot;font-size: 10px&quot;&gt;Positional&amp;nbsp;&lt;/span&gt;&lt;font style=&quot;font-size: 12px&quot;&gt;Encoding&lt;/font&gt;&lt;/font&gt;" style="text;html=1;align=center;verticalAlign=middle;resizable=0;points=[];autosize=1;strokeColor=none;fillColor=none;fontSize=14;" parent="1" vertex="1">
          <mxGeometry x="489.75" y="374.5" width="120" height="20" as="geometry" />
        </mxCell>
        <mxCell id="faAQEIFpF8tsHkvl49LA-2" value="" style="endArrow=none;html=1;rounded=0;exitX=0.5;exitY=0;exitDx=0;exitDy=0;entryX=0.5;entryY=1;entryDx=0;entryDy=0;" edge="1" parent="1" source="zVb_pj8RaRooyPpA-IDt-10" target="zVb_pj8RaRooyPpA-IDt-25">
          <mxGeometry width="50" height="50" relative="1" as="geometry">
            <mxPoint x="330" y="250" as="sourcePoint" />
            <mxPoint x="380" y="200" as="targetPoint" />
          </mxGeometry>
        </mxCell>
        <mxCell id="faAQEIFpF8tsHkvl49LA-3" value="" style="endArrow=none;html=1;rounded=0;exitX=0.5;exitY=0;exitDx=0;exitDy=0;entryX=0.5;entryY=1;entryDx=0;entryDy=0;" edge="1" parent="1" source="zVb_pj8RaRooyPpA-IDt-9" target="zVb_pj8RaRooyPpA-IDt-24">
          <mxGeometry width="50" height="50" relative="1" as="geometry">
            <mxPoint x="150" y="180" as="sourcePoint" />
            <mxPoint x="200" y="130" as="targetPoint" />
          </mxGeometry>
        </mxCell>
        <mxCell id="faAQEIFpF8tsHkvl49LA-4" value="" style="endArrow=none;html=1;rounded=0;exitX=0.5;exitY=0;exitDx=0;exitDy=0;" edge="1" parent="1" source="zVb_pj8RaRooyPpA-IDt-8" target="zVb_pj8RaRooyPpA-IDt-7">
          <mxGeometry width="50" height="50" relative="1" as="geometry">
            <mxPoint x="710" y="180" as="sourcePoint" />
            <mxPoint x="760" y="130" as="targetPoint" />
          </mxGeometry>
        </mxCell>
        <mxCell id="faAQEIFpF8tsHkvl49LA-5" value="N&lt;sub&gt;x&lt;/sub&gt;" style="text;html=1;align=center;verticalAlign=middle;resizable=0;points=[];autosize=1;strokeColor=none;fillColor=none;" vertex="1" parent="1">
          <mxGeometry x="80" y="281" width="30" height="20" as="geometry" />
        </mxCell>
        <mxCell id="faAQEIFpF8tsHkvl49LA-6" value="N&lt;sub&gt;x&lt;/sub&gt;" style="text;html=1;align=center;verticalAlign=middle;resizable=0;points=[];autosize=1;strokeColor=none;fillColor=none;" vertex="1" parent="1">
          <mxGeometry x="601" y="230" width="30" height="20" as="geometry" />
        </mxCell>
      </root>
    </mxGraphModel>
  </diagram>
</mxfile>
